SplineFontDB: 3.0
FontName: CodifiedFlagSemaphore-Regular
FullName: Flag Semaphore
FamilyName: CodifiedFlagSemaphore
Weight: Regular
Copyright: Copyright (c) 2017, Guillermo Robles, SIL Open Font License
UComments: "2017-8-3: Created with FontForge (http://fontforge.org)"
Version: 0.1
ItalicAngle: 0
UnderlinePosition: -102.4
UnderlineWidth: 51.2
Ascent: 819
Descent: 205
InvalidEm: 0
LayerCount: 2
Layer: 0 0 "Back" 1
Layer: 1 0 "Fore" 0
XUID: [1021 514 -681402365 5035457]
StyleMap: 0x0000
FSType: 0
OS2Version: 0
OS2_WeightWidthSlopeOnly: 0
OS2_UseTypoMetrics: 1
CreationTime: 1501794328
ModificationTime: 1502041525
OS2TypoAscent: 0
OS2TypoAOffset: 1
OS2TypoDescent: 0
OS2TypoDOffset: 1
OS2TypoLinegap: 92
OS2WinAscent: 0
OS2WinAOffset: 1
OS2WinDescent: 0
OS2WinDOffset: 1
HheadAscent: 0
HheadAOffset: 1
HheadDescent: 0
HheadDOffset: 1
MarkAttachClasses: 1
DEI: 91125
Encoding: ISO8859-1
UnicodeInterp: none
NameList: AGL For New Fonts
DisplaySize: -48
AntiAlias: 1
FitToEm: 0
WinInfo: 0 27 10
BeginPrivate: 0
EndPrivate
BeginChars: 256 66

StartChar: R
Encoding: 82 82 0
Width: 1024
VWidth: 0
Flags: HMW
LayerCount: 2
Fore
SplineSet
128 384 m 0
 128 597 299 768 512 768 c 0
 725 768 896 597 896 384 c 0
 896 171 725 0 512 0 c 0
 299 0 128 171 128 384 c 0
817 345 m 1
 512 345 l 1
 207 345 l 1
 227 196 359 77 512 77 c 0
 665 77 797 196 817 345 c 1
817 422 m 1
 798 571 665 691 512 691 c 0
 359 691 226 571 207 422 c 1
 512 422 l 1
 817 422 l 1
EndSplineSet
Validated: 1
EndChar

StartChar: D
Encoding: 68 68 1
Width: 1024
VWidth: 0
Flags: HW
LayerCount: 2
Fore
SplineSet
128 384 m 0
 128 597 299 768 512 768 c 0
 725 768 896 597 896 384 c 0
 896 171 725 0 512 0 c 0
 299 0 128 171 128 384 c 0
474 79 m 1
 474 384 l 1
 474 689 l 1
 325 670 205 537 205 384 c 0
 205 231 325 98 474 79 c 1
550 79 m 1
 699 98 819 231 819 384 c 0
 819 537 699 670 550 689 c 1
 550 384 l 1
 550 79 l 1
EndSplineSet
Validated: 1
EndChar

StartChar: A
Encoding: 65 65 2
Width: 1024
VWidth: 0
Flags: HW
LayerCount: 2
Fore
SplineSet
128 384 m 0
 128 597 299 768 512 768 c 0
 725 768 896 597 896 384 c 0
 896 171 725 0 512 0 c 0
 299 0 128 171 128 384 c 0
474 79 m 1
 474 301 l 1
 307 158 l 1
 353 116 411 87 474 79 c 1
550 79 m 1
 699 98 819 231 819 384 c 0
 819 550 678 691 512 691 c 0
 346 691 205 550 205 384 c 0
 205 323 224 265 256 216 c 1
 485 412 l 1
 486 412 l 1
 493 418 502 422 512 422 c 0
 534 422 550 406 550 384 c 2
 550 79 l 1
EndSplineSet
Validated: 1
EndChar

StartChar: B
Encoding: 66 66 3
Width: 1024
VWidth: 0
Flags: HW
LayerCount: 2
Fore
SplineSet
512 345 m 1025
550 345 m 1025
128 384 m 0,2,3
 128 597 299 768 512 768 c 0,4,5
 725 768 896 597 896 384 c 0,6,7
 896 171 725 0 512 0 c 0,8,9
 299 0 128 171 128 384 c 0,2,3
474 79 m 1,10,-1
 474 345 l 1,11,-1
 207 345 l 1,12,13
 225 209 338 97 474 79 c 1,10,-1
550 79 m 1,14,15
 699 98 819 231 819 384 c 0,16,17
 819 550 678 691 512 691 c 0,18,19
 359 691 226 571 207 422 c 1,20,-1
 512 422 l 2,21,22
 534 422 550 406 550 384 c 2,23,-1
 550 79 l 1,14,15
EndSplineSet
Validated: 1
EndChar

StartChar: C
Encoding: 67 67 4
Width: 1024
VWidth: 0
Flags: HW
LayerCount: 2
Fore
SplineSet
128 384 m 0
 128 597 299 768 512 768 c 0
 725 768 896 597 896 384 c 0
 896 171 725 0 512 0 c 0
 299 0 128 171 128 384 c 0
474 79 m 1
 474 367 l 1
 262 560 l 1
 226 510 205 449 205 384 c 0
 205 231 325 98 474 79 c 1
550 79 m 1
 699 98 819 231 819 384 c 0
 819 550 678 691 512 691 c 0
 438 691 368 663 314 617 c 1
 536 414 l 1
 536 414 l 1
 545 407 550 396 550 384 c 2
 550 79 l 1
EndSplineSet
Validated: 5
EndChar

StartChar: E
Encoding: 69 69 5
Width: 1024
VWidth: 0
Flags: HW
LayerCount: 2
Fore
SplineSet
128 384 m 0
 128 597 299 768 512 768 c 0
 725 768 896 597 896 384 c 0
 896 171 725 0 512 0 c 0
 299 0 128 171 128 384 c 0
474 79 m 1
 474 384 l 2
 474 395 479 405 486 412 c 1
 485 412 l 1
 718 609 l 1
 663 660 590 691 512 691 c 0
 346 691 205 550 205 384 c 0
 205 231 325 98 474 79 c 1
550 79 m 1
 699 98 819 231 819 384 c 0
 819 445 800 503 767 552 c 1
 550 366 l 1
 550 79 l 1
EndSplineSet
Validated: 1
EndChar

StartChar: F
Encoding: 70 70 6
Width: 1024
VWidth: 0
Flags: HW
LayerCount: 2
Fore
SplineSet
128 384 m 0
 128 597 299 768 512 768 c 0
 725 768 896 597 896 384 c 0
 896 171 725 0 512 0 c 0
 299 0 128 171 128 384 c 0
474 79 m 1
 474 384 l 2
 474 406 490 422 512 422 c 2
 817 422 l 1
 798 571 665 691 512 691 c 0
 346 691 205 550 205 384 c 0
 205 231 325 98 474 79 c 1
550 79 m 1
 686 97 799 209 817 345 c 1
 550 345 l 1
 550 79 l 1
EndSplineSet
Validated: 1
EndChar

StartChar: G
Encoding: 71 71 7
Width: 1024
VWidth: 0
Flags: HW
LayerCount: 2
Fore
SplineSet
128 384 m 0
 128 597 299 768 512 768 c 0
 725 768 896 597 896 384 c 0
 896 171 725 0 512 0 c 0
 299 0 128 171 128 384 c 0
474 79 m 1
 474 384 l 2
 474 406 490 422 512 422 c 0
 521 422 530 419 536 414 c 5
 536 414 l 1
 761 207 l 1
 798 258 819 319 819 384 c 0
 819 550 678 691 512 691 c 0
 346 691 205 550 205 384 c 0
 205 231 325 98 474 79 c 1
550 79 m 1
 610 87 665 114 710 152 c 1
 550 298 l 1
 550 79 l 1
EndSplineSet
Validated: 5
EndChar

StartChar: H
Encoding: 72 72 8
Width: 1024
VWidth: 0
Flags: HW
LayerCount: 2
Fore
SplineSet
128 384 m 0
 128 597 299 768 512 768 c 0
 725 768 896 597 896 384 c 0
 896 171 725 0 512 0 c 0
 299 0 128 171 128 384 c 0
256 216 m 1
 407 345 l 1
 207 345 l 1
 213 298 230 254 256 216 c 1
532 351 m 2
 307 158 l 1
 362 108 434 77 512 77 c 0
 678 77 819 218 819 384 c 0
 819 550 678 691 512 691 c 0
 359 691 226 571 207 422 c 1
 512 422 l 2
 534 422 550 406 550 384 c 0
 550 370 543 358 532 351 c 2
EndSplineSet
Validated: 1
EndChar

StartChar: I
Encoding: 73 73 9
Width: 1024
VWidth: 0
Flags: HW
LayerCount: 2
Fore
SplineSet
128 384 m 0
 128 597 299 768 512 768 c 0
 725 768 896 597 896 384 c 0
 896 171 725 0 512 0 c 0
 299 0 128 171 128 384 c 0
256 216 m 1
 454 385 l 1
 262 560 l 1
 226 510 205 449 205 384 c 0
 205 323 224 265 256 216 c 1
532 351 m 2
 307 158 l 1
 362 108 434 77 512 77 c 0
 678 77 819 218 819 384 c 0
 819 550 678 691 512 691 c 0
 438 691 368 663 314 617 c 1
 536 414 l 1
 536 414 l 1
 545 407 550 396 550 384 c 0
 550 370 543 358 532 351 c 2
EndSplineSet
Validated: 5
EndChar

StartChar: J
Encoding: 74 74 10
Width: 1024
VWidth: 0
Flags: HW
LayerCount: 2
Fore
SplineSet
128 384 m 0
 128 597 299 768 512 768 c 0
 725 768 896 597 896 384 c 0
 896 171 725 0 512 0 c 0
 299 0 128 171 128 384 c 0
205 384 m 0
 205 218 346 77 512 77 c 0
 665 77 797 196 817 345 c 1
 512 345 l 2
 490 345 474 362 474 384 c 2
 474 689 l 1
 325 670 205 537 205 384 c 0
550 689 m 1
 550 422 l 1
 817 422 l 1
 799 559 687 671 550 689 c 1
EndSplineSet
Validated: 1
EndChar

StartChar: K
Encoding: 75 75 11
Width: 1024
VWidth: 0
Flags: HW
LayerCount: 2
Fore
SplineSet
532 351 m 2
 307 158 l 1
 362 108 434 77 512 77 c 0
 678 77 819 218 819 384 c 0
 819 537 699 670 550 689 c 1
 550 384 l 2
 550 370 543 358 532 351 c 2
256 216 m 1
 474 402 l 1
 474 689 l 1
 325 670 205 537 205 384 c 0
 205 323 224 265 256 216 c 1
128 384 m 0
 128 597 299 768 512 768 c 0
 725 768 896 597 896 384 c 0
 896 171 725 0 512 0 c 0
 299 0 128 171 128 384 c 0
EndSplineSet
Validated: 1
EndChar

StartChar: L
Encoding: 76 76 12
Width: 1024
VWidth: 0
Flags: HW
LayerCount: 2
Fore
SplineSet
128 384 m 0
 128 597 299 768 512 768 c 0
 725 768 896 597 896 384 c 0
 896 171 725 0 512 0 c 0
 299 0 128 171 128 384 c 0
256 216 m 1
 485 412 l 1
 718 609 l 1
 663 660 590 691 512 691 c 0
 346 691 205 550 205 384 c 0
 205 323 224 265 256 216 c 1
532 351 m 2
 307 158 l 1
 362 108 434 77 512 77 c 0
 678 77 819 218 819 384 c 0
 819 445 800 503 767 552 c 1
 540 357 l 2
 538 355 535 353 532 351 c 2
EndSplineSet
Validated: 1
EndChar

StartChar: M
Encoding: 77 77 13
Width: 1024
VWidth: 0
Flags: HW
LayerCount: 2
Fore
SplineSet
128 384 m 0
 128 597 299 768 512 768 c 0
 725 768 896 597 896 384 c 0
 896 171 725 0 512 0 c 0
 299 0 128 171 128 384 c 0
256 216 m 1
 485 412 l 1
 486 412 l 1
 493 418 502 422 512 422 c 2
 817 422 l 1
 798 571 665 691 512 691 c 0
 346 691 205 550 205 384 c 0
 205 323 224 265 256 216 c 1
307 158 m 1
 362 108 434 77 512 77 c 0
 665 77 797 196 817 345 c 1
 525 345 l 1
 307 158 l 1
EndSplineSet
Validated: 1
EndChar

StartChar: N
Encoding: 78 78 14
Width: 1024
VWidth: 0
Flags: HW
LayerCount: 2
Fore
SplineSet
128 384 m 0
 128 597 299 768 512 768 c 0
 725 768 896 597 896 384 c 0
 896 171 725 0 512 0 c 0
 299 0 128 171 128 384 c 0
256 216 m 1
 485 412 l 1
 486 412 l 1
 493 418 502 422 512 422 c 0
 521 422 530 419 536 414 c 1
 536 414 l 1
 761 207 l 1
 798 258 819 319 819 384 c 0
 819 550 678 691 512 691 c 0
 346 691 205 550 205 384 c 0
 205 323 224 265 256 216 c 1
307 158 m 1
 362 108 434 77 512 77 c 0
 587 77 656 106 710 152 c 1
 511 333 l 1
 307 158 l 1
EndSplineSet
Validated: 5
EndChar

StartChar: O
Encoding: 79 79 15
Width: 1024
VWidth: 0
Flags: HW
LayerCount: 2
Fore
SplineSet
128 384 m 0
 128 597 299 768 512 768 c 0
 725 768 896 597 896 384 c 0
 896 171 725 0 512 0 c 0
 299 0 128 171 128 384 c 0
207 345 m 1
 227 196 359 77 512 77 c 0
 678 77 819 218 819 384 c 0
 819 550 678 691 512 691 c 0
 438 691 368 663 314 617 c 1
 536 414 l 1
 536 414 l 1
 545 407 550 396 550 384 c 0
 550 362 534 345 512 345 c 2
 207 345 l 1
207 422 m 1
 414 422 l 1
 262 560 l 1
 233 520 214 473 207 422 c 1
EndSplineSet
Validated: 5
EndChar

StartChar: P
Encoding: 80 80 16
Width: 1024
VWidth: 0
Flags: HW
LayerCount: 2
Fore
SplineSet
128 384 m 0
 128 597 299 768 512 768 c 0
 725 768 896 597 896 384 c 0
 896 171 725 0 512 0 c 0
 299 0 128 171 128 384 c 0
474 689 m 1
 337 671 225 559 207 422 c 1
 474 422 l 1
 474 689 l 1
550 384 m 2
 550 362 534 345 512 345 c 2
 207 345 l 1
 227 196 359 77 512 77 c 0
 678 77 819 218 819 384 c 0
 819 537 699 670 550 689 c 1
 550 384 l 2
EndSplineSet
Validated: 1
EndChar

StartChar: Q
Encoding: 81 81 17
Width: 1024
VWidth: 0
Flags: HW
LayerCount: 2
Fore
SplineSet
128 384 m 0
 128 597 299 768 512 768 c 0
 725 768 896 597 896 384 c 0
 896 171 725 0 512 0 c 0
 299 0 128 171 128 384 c 0
207 345 m 1
 227 196 359 77 512 77 c 0
 678 77 819 218 819 384 c 0
 819 445 800 503 767 552 c 1
 540 357 l 2
 533 349 523 345 512 345 c 2
 207 345 l 1
207 422 m 1
 497 422 l 1
 718 609 l 1
 663 660 590 691 512 691 c 0
 359 691 226 571 207 422 c 1
EndSplineSet
Validated: 1
EndChar

StartChar: S
Encoding: 83 83 18
Width: 1024
VWidth: 0
Flags: HW
LayerCount: 2
Fore
SplineSet
128 384 m 0
 128 597 299 768 512 768 c 0
 725 768 896 597 896 384 c 0
 896 171 725 0 512 0 c 0
 299 0 128 171 128 384 c 0
207 345 m 1
 227 196 359 77 512 77 c 0
 587 77 656 106 710 152 c 1
 498 345 l 1
 207 345 l 1
512 422 m 2
 521 422 530 419 536 414 c 1
 536 414 l 1
 761 207 l 1
 798 258 819 319 819 384 c 0
 819 550 678 691 512 691 c 0
 359 691 226 571 207 422 c 1
 512 422 l 2
EndSplineSet
Validated: 5
EndChar

StartChar: T
Encoding: 84 84 19
Width: 1024
VWidth: 0
Flags: HW
LayerCount: 2
Fore
SplineSet
128 384 m 0
 128 597 299 768 512 768 c 0
 725 768 896 597 896 384 c 0
 896 171 725 0 512 0 c 0
 299 0 128 171 128 384 c 0
205 384 m 0
 205 218 346 77 512 77 c 0
 678 77 819 218 819 384 c 0
 819 537 699 670 550 689 c 1
 550 384 l 2
 550 362 534 345 512 345 c 0
 500 345 490 350 483 358 c 2
 262 560 l 1
 226 510 205 449 205 384 c 0
474 689 m 1
 414 681 359 655 314 617 c 1
 474 471 l 1
 474 689 l 1
EndSplineSet
Validated: 1
EndChar

StartChar: U
Encoding: 85 85 20
Width: 1024
VWidth: 0
Flags: HW
LayerCount: 2
Fore
SplineSet
128 384 m 0
 128 597 299 768 512 768 c 0
 725 768 896 597 896 384 c 0
 896 171 725 0 512 0 c 0
 299 0 128 171 128 384 c 0
817 345 m 1
 512 345 l 1
 207 345 l 1
 227 196 359 77 512 77 c 0
 665 77 797 196 817 345 c 1
817 422 m 1
 798 571 665 691 512 691 c 0
 359 691 226 571 207 422 c 1
 512 422 l 1
 817 422 l 1
EndSplineSet
Validated: 1
EndChar

StartChar: V
Encoding: 86 86 21
Width: 1024
VWidth: 0
Flags: HW
LayerCount: 2
Fore
SplineSet
128 384 m 0
 128 597 299 768 512 768 c 0
 725 768 896 597 896 384 c 0
 896 171 725 0 512 0 c 0
 299 0 128 171 128 384 c 0
205 384 m 0
 205 218 346 77 512 77 c 0
 587 77 656 106 710 152 c 1
 490 352 l 2
 480 359 474 371 474 384 c 2
 474 689 l 1
 325 670 205 537 205 384 c 0
550 689 m 1
 550 401 l 1
 761 207 l 1
 798 258 819 319 819 384 c 0
 819 537 699 670 550 689 c 1
EndSplineSet
Validated: 1
EndChar

StartChar: W
Encoding: 87 87 22
Width: 1024
VWidth: 0
Flags: HW
LayerCount: 2
Fore
SplineSet
128 384 m 0
 128 597 299 768 512 768 c 0
 725 768 896 597 896 384 c 0
 896 171 725 0 512 0 c 0
 299 0 128 171 128 384 c 0
205 384 m 0
 205 218 346 77 512 77 c 0
 665 77 797 196 817 345 c 1
 512 345 l 2
 490 345 474 362 474 384 c 0
 474 395 479 405 486 412 c 1
 485 412 l 1
 718 609 l 1
 663 660 590 691 512 691 c 0
 346 691 205 550 205 384 c 0
817 422 m 1
 811 469 793 513 767 552 c 1
 615 422 l 1
 817 422 l 1
EndSplineSet
Validated: 1
EndChar

StartChar: X
Encoding: 88 88 23
Width: 1024
VWidth: 0
Flags: HW
LayerCount: 2
Fore
SplineSet
128 384 m 0
 128 597 299 768 512 768 c 0
 725 768 896 597 896 384 c 0
 896 171 725 0 512 0 c 0
 299 0 128 171 128 384 c 0
205 384 m 0
 205 218 346 77 512 77 c 0
 587 77 656 106 710 152 c 1
 490 352 l 2
 480 359 474 371 474 384 c 0
 474 395 479 405 486 412 c 1
 485 412 l 1
 718 609 l 1
 663 660 590 691 512 691 c 0
 346 691 205 550 205 384 c 0
767 552 m 1
 570 383 l 1
 761 207 l 1
 798 258 819 319 819 384 c 0
 819 445 800 503 767 552 c 1
EndSplineSet
Validated: 1
EndChar

StartChar: Y
Encoding: 89 89 24
Width: 1024
VWidth: 0
Flags: HW
LayerCount: 2
Fore
SplineSet
128 384 m 0
 128 597 299 768 512 768 c 0
 725 768 896 597 896 384 c 0
 896 171 725 0 512 0 c 0
 299 0 128 171 128 384 c 0
205 384 m 0
 205 218 346 77 512 77 c 0
 665 77 797 196 817 345 c 1
 512 345 l 2
 500 345 490 350 483 358 c 2
 262 560 l 1
 226 510 205 449 205 384 c 0
817 422 m 1
 798 571 665 691 512 691 c 0
 438 691 368 663 314 617 c 1
 527 422 l 1
 817 422 l 1
EndSplineSet
Validated: 1
EndChar

StartChar: Z
Encoding: 90 90 25
Width: 1024
VWidth: 0
Flags: HW
LayerCount: 2
Fore
SplineSet
128 384 m 0
 128 597 299 768 512 768 c 0
 725 768 896 597 896 384 c 0
 896 171 725 0 512 0 c 0
 299 0 128 171 128 384 c 0
205 384 m 0
 205 218 346 77 512 77 c 0
 587 77 656 106 710 152 c 1
 490 352 l 2
 480 359 474 371 474 384 c 0
 474 406 490 422 512 422 c 2
 817 422 l 1
 798 571 665 691 512 691 c 0
 346 691 205 550 205 384 c 0
817 345 m 1
 611 345 l 1
 761 207 l 1
 790 247 810 294 817 345 c 1
EndSplineSet
Validated: 1
EndChar

StartChar: at
Encoding: 64 64 26
Width: 1024
VWidth: 0
Flags: HW
LayerCount: 2
Fore
SplineSet
806 165 m 1
 711 151 l 1
 488 354 l 1
 536 414 l 1
 806 165 l 1
536 414 m 1
 488 354 l 1
 211 607 l 1
 266 661 l 1
 536 414 l 1
766 649 m 1
 768 553 l 1
 539 356 l 1
 485 412 l 1
 766 649 l 1
183 422 m 1
 512 422 l 1
 512 345 l 1
 174 345 l 1
 183 422 l 1
512 422 m 1
 857 422 l 1
 850 345 l 1
 512 345 l 1
 512 422 l 1
474 713 m 1
 550 713 l 1
 550 384 l 1
 474 384 l 1
 474 713 l 1
485 412 m 1
 539 356 l 1
 254 113 l 1
 207 174 l 1
 485 412 l 1
474 384 m 1
 550 384 l 1
 550 55 l 1
 474 55 l 1
 474 384 l 1
474 384 m 0
 474 406 490 422 512 422 c 0
 534 422 550 406 550 384 c 0
 550 362 534 345 512 345 c 0
 490 345 474 362 474 384 c 0
205 384 m 0
 205 218 346 77 512 77 c 0
 678 77 819 218 819 384 c 0
 819 550 678 691 512 691 c 0
 346 691 205 550 205 384 c 0
128 384 m 0
 128 597 299 768 512 768 c 0
 725 768 896 597 896 384 c 0
 896 171 725 0 512 0 c 0
 299 0 128 171 128 384 c 0
EndSplineSet
Validated: 5
EndChar

StartChar: a
Encoding: 97 97 27
Width: 1024
VWidth: 0
Flags: HW
LayerCount: 2
Fore
SplineSet
128 384 m 0
 128 597 299 768 512 768 c 0
 725 768 896 597 896 384 c 0
 896 171 725 0 512 0 c 0
 299 0 128 171 128 384 c 0
474 79 m 1
 474 301 l 1
 307 158 l 1
 353 116 411 87 474 79 c 1
550 79 m 1
 699 98 819 231 819 384 c 0
 819 550 678 691 512 691 c 0
 346 691 205 550 205 384 c 0
 205 323 224 265 256 216 c 1
 485 412 l 1
 486 412 l 1
 493 418 502 422 512 422 c 0
 534 422 550 406 550 384 c 2
 550 79 l 1
EndSplineSet
Validated: 1
EndChar

StartChar: b
Encoding: 98 98 28
Width: 1024
VWidth: 0
Flags: HW
LayerCount: 2
Fore
SplineSet
512 345 m 1025
550 345 m 1025
128 384 m 0,2,3
 128 597 299 768 512 768 c 0,4,5
 725 768 896 597 896 384 c 0,6,7
 896 171 725 0 512 0 c 0,8,9
 299 0 128 171 128 384 c 0,2,3
474 79 m 1,10,-1
 474 345 l 1,11,-1
 207 345 l 1,12,13
 225 209 338 97 474 79 c 1,10,-1
550 79 m 1,14,15
 699 98 819 231 819 384 c 0,16,17
 819 550 678 691 512 691 c 0,18,19
 359 691 226 571 207 422 c 1,20,-1
 512 422 l 2,21,22
 534 422 550 406 550 384 c 2,23,-1
 550 79 l 1,14,15
EndSplineSet
Validated: 1
EndChar

StartChar: c
Encoding: 99 99 29
Width: 1024
VWidth: 0
Flags: HW
LayerCount: 2
Fore
SplineSet
128 384 m 0
 128 597 299 768 512 768 c 0
 725 768 896 597 896 384 c 0
 896 171 725 0 512 0 c 0
 299 0 128 171 128 384 c 0
474 79 m 1
 474 367 l 1
 262 560 l 1
 226 510 205 449 205 384 c 0
 205 231 325 98 474 79 c 1
550 79 m 1
 699 98 819 231 819 384 c 0
 819 550 678 691 512 691 c 0
 438 691 368 663 314 617 c 1
 536 414 l 1
 536 414 l 1
 545 407 550 396 550 384 c 2
 550 79 l 1
EndSplineSet
Validated: 5
EndChar

StartChar: d
Encoding: 100 100 30
Width: 1024
VWidth: 0
Flags: HW
LayerCount: 2
Fore
SplineSet
128 384 m 0
 128 597 299 768 512 768 c 0
 725 768 896 597 896 384 c 0
 896 171 725 0 512 0 c 0
 299 0 128 171 128 384 c 0
474 79 m 1
 474 384 l 1
 474 689 l 1
 325 670 205 537 205 384 c 0
 205 231 325 98 474 79 c 1
550 79 m 1
 699 98 819 231 819 384 c 0
 819 537 699 670 550 689 c 1
 550 384 l 1
 550 79 l 1
EndSplineSet
Validated: 1
EndChar

StartChar: e
Encoding: 101 101 31
Width: 1024
VWidth: 0
Flags: HW
LayerCount: 2
Fore
SplineSet
128 384 m 0
 128 597 299 768 512 768 c 0
 725 768 896 597 896 384 c 0
 896 171 725 0 512 0 c 0
 299 0 128 171 128 384 c 0
474 79 m 1
 474 384 l 2
 474 395 479 405 486 412 c 1
 485 412 l 1
 718 609 l 1
 663 660 590 691 512 691 c 0
 346 691 205 550 205 384 c 0
 205 231 325 98 474 79 c 1
550 79 m 1
 699 98 819 231 819 384 c 0
 819 445 800 503 767 552 c 1
 550 366 l 1
 550 79 l 1
EndSplineSet
Validated: 1
EndChar

StartChar: f
Encoding: 102 102 32
Width: 1024
VWidth: 0
Flags: HW
LayerCount: 2
Fore
SplineSet
128 384 m 0
 128 597 299 768 512 768 c 0
 725 768 896 597 896 384 c 0
 896 171 725 0 512 0 c 0
 299 0 128 171 128 384 c 0
474 79 m 1
 474 384 l 2
 474 406 490 422 512 422 c 2
 817 422 l 1
 798 571 665 691 512 691 c 0
 346 691 205 550 205 384 c 0
 205 231 325 98 474 79 c 1
550 79 m 1
 686 97 799 209 817 345 c 1
 550 345 l 1
 550 79 l 1
EndSplineSet
Validated: 1
EndChar

StartChar: g
Encoding: 103 103 33
Width: 1024
VWidth: 0
Flags: HW
LayerCount: 2
Fore
SplineSet
128 384 m 0
 128 597 299 768 512 768 c 0
 725 768 896 597 896 384 c 0
 896 171 725 0 512 0 c 0
 299 0 128 171 128 384 c 0
474 79 m 1
 474 384 l 2
 474 406 490 422 512 422 c 0
 521 422 530 419 536 414 c 5
 536 414 l 1
 761 207 l 1
 798 258 819 319 819 384 c 0
 819 550 678 691 512 691 c 0
 346 691 205 550 205 384 c 0
 205 231 325 98 474 79 c 1
550 79 m 1
 610 87 665 114 710 152 c 1
 550 298 l 1
 550 79 l 1
EndSplineSet
Validated: 5
EndChar

StartChar: h
Encoding: 104 104 34
Width: 1024
VWidth: 0
Flags: HW
LayerCount: 2
Fore
SplineSet
128 384 m 0
 128 597 299 768 512 768 c 0
 725 768 896 597 896 384 c 0
 896 171 725 0 512 0 c 0
 299 0 128 171 128 384 c 0
256 216 m 1
 407 345 l 1
 207 345 l 1
 213 298 230 254 256 216 c 1
532 351 m 2
 307 158 l 1
 362 108 434 77 512 77 c 0
 678 77 819 218 819 384 c 0
 819 550 678 691 512 691 c 0
 359 691 226 571 207 422 c 1
 512 422 l 2
 534 422 550 406 550 384 c 0
 550 370 543 358 532 351 c 2
EndSplineSet
Validated: 1
EndChar

StartChar: i
Encoding: 105 105 35
Width: 1024
VWidth: 0
Flags: HW
LayerCount: 2
Fore
SplineSet
128 384 m 0
 128 597 299 768 512 768 c 0
 725 768 896 597 896 384 c 0
 896 171 725 0 512 0 c 0
 299 0 128 171 128 384 c 0
256 216 m 1
 454 385 l 1
 262 560 l 1
 226 510 205 449 205 384 c 0
 205 323 224 265 256 216 c 1
532 351 m 2
 307 158 l 1
 362 108 434 77 512 77 c 0
 678 77 819 218 819 384 c 0
 819 550 678 691 512 691 c 0
 438 691 368 663 314 617 c 1
 536 414 l 1
 536 414 l 1
 545 407 550 396 550 384 c 0
 550 370 543 358 532 351 c 2
EndSplineSet
Validated: 5
EndChar

StartChar: j
Encoding: 106 106 36
Width: 1024
VWidth: 0
Flags: HW
LayerCount: 2
Fore
SplineSet
128 384 m 0
 128 597 299 768 512 768 c 0
 725 768 896 597 896 384 c 0
 896 171 725 0 512 0 c 0
 299 0 128 171 128 384 c 0
205 384 m 0
 205 218 346 77 512 77 c 0
 665 77 797 196 817 345 c 1
 512 345 l 2
 490 345 474 362 474 384 c 2
 474 689 l 1
 325 670 205 537 205 384 c 0
550 689 m 1
 550 422 l 1
 817 422 l 1
 799 559 687 671 550 689 c 1
EndSplineSet
Validated: 1
EndChar

StartChar: k
Encoding: 107 107 37
Width: 1024
VWidth: 0
Flags: HW
LayerCount: 2
Fore
SplineSet
532 351 m 2
 307 158 l 1
 362 108 434 77 512 77 c 0
 678 77 819 218 819 384 c 0
 819 537 699 670 550 689 c 1
 550 384 l 2
 550 370 543 358 532 351 c 2
256 216 m 1
 474 402 l 1
 474 689 l 1
 325 670 205 537 205 384 c 0
 205 323 224 265 256 216 c 1
128 384 m 0
 128 597 299 768 512 768 c 0
 725 768 896 597 896 384 c 0
 896 171 725 0 512 0 c 0
 299 0 128 171 128 384 c 0
EndSplineSet
Validated: 1
EndChar

StartChar: l
Encoding: 108 108 38
Width: 1024
VWidth: 0
Flags: HW
LayerCount: 2
Fore
SplineSet
128 384 m 0
 128 597 299 768 512 768 c 0
 725 768 896 597 896 384 c 0
 896 171 725 0 512 0 c 0
 299 0 128 171 128 384 c 0
256 216 m 1
 485 412 l 1
 718 609 l 1
 663 660 590 691 512 691 c 0
 346 691 205 550 205 384 c 0
 205 323 224 265 256 216 c 1
532 351 m 2
 307 158 l 1
 362 108 434 77 512 77 c 0
 678 77 819 218 819 384 c 0
 819 445 800 503 767 552 c 1
 540 357 l 2
 538 355 535 353 532 351 c 2
EndSplineSet
Validated: 1
EndChar

StartChar: m
Encoding: 109 109 39
Width: 1024
VWidth: 0
Flags: HW
LayerCount: 2
Fore
SplineSet
128 384 m 0
 128 597 299 768 512 768 c 0
 725 768 896 597 896 384 c 0
 896 171 725 0 512 0 c 0
 299 0 128 171 128 384 c 0
256 216 m 1
 485 412 l 1
 486 412 l 1
 493 418 502 422 512 422 c 2
 817 422 l 1
 798 571 665 691 512 691 c 0
 346 691 205 550 205 384 c 0
 205 323 224 265 256 216 c 1
307 158 m 1
 362 108 434 77 512 77 c 0
 665 77 797 196 817 345 c 1
 525 345 l 1
 307 158 l 1
EndSplineSet
Validated: 1
EndChar

StartChar: n
Encoding: 110 110 40
Width: 1024
VWidth: 0
Flags: HW
LayerCount: 2
Fore
SplineSet
128 384 m 0
 128 597 299 768 512 768 c 0
 725 768 896 597 896 384 c 0
 896 171 725 0 512 0 c 0
 299 0 128 171 128 384 c 0
256 216 m 1
 485 412 l 1
 486 412 l 1
 493 418 502 422 512 422 c 0
 521 422 530 419 536 414 c 1
 536 414 l 1
 761 207 l 1
 798 258 819 319 819 384 c 0
 819 550 678 691 512 691 c 0
 346 691 205 550 205 384 c 0
 205 323 224 265 256 216 c 1
307 158 m 1
 362 108 434 77 512 77 c 0
 587 77 656 106 710 152 c 1
 511 333 l 1
 307 158 l 1
EndSplineSet
Validated: 5
EndChar

StartChar: o
Encoding: 111 111 41
Width: 1024
VWidth: 0
Flags: HW
LayerCount: 2
Fore
SplineSet
128 384 m 0
 128 597 299 768 512 768 c 0
 725 768 896 597 896 384 c 0
 896 171 725 0 512 0 c 0
 299 0 128 171 128 384 c 0
207 345 m 1
 227 196 359 77 512 77 c 0
 678 77 819 218 819 384 c 0
 819 550 678 691 512 691 c 0
 438 691 368 663 314 617 c 1
 536 414 l 1
 536 414 l 1
 545 407 550 396 550 384 c 0
 550 362 534 345 512 345 c 2
 207 345 l 1
207 422 m 1
 414 422 l 1
 262 560 l 1
 233 520 214 473 207 422 c 1
EndSplineSet
Validated: 5
EndChar

StartChar: p
Encoding: 112 112 42
Width: 1024
VWidth: 0
Flags: HW
LayerCount: 2
Fore
SplineSet
128 384 m 0
 128 597 299 768 512 768 c 0
 725 768 896 597 896 384 c 0
 896 171 725 0 512 0 c 0
 299 0 128 171 128 384 c 0
474 689 m 1
 337 671 225 559 207 422 c 1
 474 422 l 1
 474 689 l 1
550 384 m 2
 550 362 534 345 512 345 c 2
 207 345 l 1
 227 196 359 77 512 77 c 0
 678 77 819 218 819 384 c 0
 819 537 699 670 550 689 c 1
 550 384 l 2
EndSplineSet
Validated: 1
EndChar

StartChar: q
Encoding: 113 113 43
Width: 1024
VWidth: 0
Flags: HW
LayerCount: 2
Fore
SplineSet
128 384 m 0
 128 597 299 768 512 768 c 0
 725 768 896 597 896 384 c 0
 896 171 725 0 512 0 c 0
 299 0 128 171 128 384 c 0
207 345 m 1
 227 196 359 77 512 77 c 0
 678 77 819 218 819 384 c 0
 819 445 800 503 767 552 c 1
 540 357 l 2
 533 349 523 345 512 345 c 2
 207 345 l 1
207 422 m 1
 497 422 l 1
 718 609 l 1
 663 660 590 691 512 691 c 0
 359 691 226 571 207 422 c 1
EndSplineSet
Validated: 1
EndChar

StartChar: r
Encoding: 114 114 44
Width: 1024
VWidth: 0
Flags: HW
LayerCount: 2
Fore
SplineSet
128 384 m 0
 128 597 299 768 512 768 c 0
 725 768 896 597 896 384 c 0
 896 171 725 0 512 0 c 0
 299 0 128 171 128 384 c 0
817 345 m 1
 512 345 l 1
 207 345 l 1
 227 196 359 77 512 77 c 0
 665 77 797 196 817 345 c 1
817 422 m 1
 798 571 665 691 512 691 c 0
 359 691 226 571 207 422 c 1
 512 422 l 1
 817 422 l 1
EndSplineSet
Validated: 1
EndChar

StartChar: s
Encoding: 115 115 45
Width: 1024
VWidth: 0
Flags: HW
LayerCount: 2
Fore
SplineSet
128 384 m 0
 128 597 299 768 512 768 c 0
 725 768 896 597 896 384 c 0
 896 171 725 0 512 0 c 0
 299 0 128 171 128 384 c 0
207 345 m 1
 227 196 359 77 512 77 c 0
 587 77 656 106 710 152 c 1
 498 345 l 1
 207 345 l 1
512 422 m 2
 521 422 530 419 536 414 c 1
 536 414 l 1
 761 207 l 1
 798 258 819 319 819 384 c 0
 819 550 678 691 512 691 c 0
 359 691 226 571 207 422 c 1
 512 422 l 2
EndSplineSet
Validated: 5
EndChar

StartChar: t
Encoding: 116 116 46
Width: 1024
VWidth: 0
Flags: HW
LayerCount: 2
Fore
SplineSet
128 384 m 0
 128 597 299 768 512 768 c 0
 725 768 896 597 896 384 c 0
 896 171 725 0 512 0 c 0
 299 0 128 171 128 384 c 0
205 384 m 0
 205 218 346 77 512 77 c 0
 678 77 819 218 819 384 c 0
 819 537 699 670 550 689 c 1
 550 384 l 2
 550 362 534 345 512 345 c 0
 500 345 490 350 483 358 c 2
 262 560 l 1
 226 510 205 449 205 384 c 0
474 689 m 1
 414 681 359 655 314 617 c 1
 474 471 l 1
 474 689 l 1
EndSplineSet
Validated: 1
EndChar

StartChar: u
Encoding: 117 117 47
Width: 1024
VWidth: 0
Flags: HW
LayerCount: 2
Fore
SplineSet
128 384 m 0
 128 597 299 768 512 768 c 0
 725 768 896 597 896 384 c 0
 896 171 725 0 512 0 c 0
 299 0 128 171 128 384 c 0
817 345 m 1
 512 345 l 1
 207 345 l 1
 227 196 359 77 512 77 c 0
 665 77 797 196 817 345 c 1
817 422 m 1
 798 571 665 691 512 691 c 0
 359 691 226 571 207 422 c 1
 512 422 l 1
 817 422 l 1
EndSplineSet
Validated: 1
EndChar

StartChar: v
Encoding: 118 118 48
Width: 1024
VWidth: 0
Flags: HW
LayerCount: 2
Fore
SplineSet
128 384 m 0
 128 597 299 768 512 768 c 0
 725 768 896 597 896 384 c 0
 896 171 725 0 512 0 c 0
 299 0 128 171 128 384 c 0
205 384 m 0
 205 218 346 77 512 77 c 0
 587 77 656 106 710 152 c 1
 490 352 l 2
 480 359 474 371 474 384 c 2
 474 689 l 1
 325 670 205 537 205 384 c 0
550 689 m 1
 550 401 l 1
 761 207 l 1
 798 258 819 319 819 384 c 0
 819 537 699 670 550 689 c 1
EndSplineSet
Validated: 1
EndChar

StartChar: w
Encoding: 119 119 49
Width: 1024
VWidth: 0
Flags: HW
LayerCount: 2
Fore
SplineSet
128 384 m 0
 128 597 299 768 512 768 c 0
 725 768 896 597 896 384 c 0
 896 171 725 0 512 0 c 0
 299 0 128 171 128 384 c 0
205 384 m 0
 205 218 346 77 512 77 c 0
 665 77 797 196 817 345 c 1
 512 345 l 2
 490 345 474 362 474 384 c 0
 474 395 479 405 486 412 c 1
 485 412 l 1
 718 609 l 1
 663 660 590 691 512 691 c 0
 346 691 205 550 205 384 c 0
817 422 m 1
 811 469 793 513 767 552 c 1
 615 422 l 1
 817 422 l 1
EndSplineSet
Validated: 1
EndChar

StartChar: x
Encoding: 120 120 50
Width: 1024
VWidth: 0
Flags: HW
LayerCount: 2
Fore
SplineSet
128 384 m 0
 128 597 299 768 512 768 c 0
 725 768 896 597 896 384 c 0
 896 171 725 0 512 0 c 0
 299 0 128 171 128 384 c 0
205 384 m 0
 205 218 346 77 512 77 c 0
 587 77 656 106 710 152 c 1
 490 352 l 2
 480 359 474 371 474 384 c 0
 474 395 479 405 486 412 c 1
 485 412 l 1
 718 609 l 1
 663 660 590 691 512 691 c 0
 346 691 205 550 205 384 c 0
767 552 m 1
 570 383 l 1
 761 207 l 1
 798 258 819 319 819 384 c 0
 819 445 800 503 767 552 c 1
EndSplineSet
Validated: 1
EndChar

StartChar: y
Encoding: 121 121 51
Width: 1024
VWidth: 0
Flags: HW
LayerCount: 2
Fore
SplineSet
128 384 m 0
 128 597 299 768 512 768 c 0
 725 768 896 597 896 384 c 0
 896 171 725 0 512 0 c 0
 299 0 128 171 128 384 c 0
205 384 m 0
 205 218 346 77 512 77 c 0
 665 77 797 196 817 345 c 1
 512 345 l 2
 500 345 490 350 483 358 c 2
 262 560 l 1
 226 510 205 449 205 384 c 0
817 422 m 1
 798 571 665 691 512 691 c 0
 438 691 368 663 314 617 c 1
 527 422 l 1
 817 422 l 1
EndSplineSet
Validated: 1
EndChar

StartChar: z
Encoding: 122 122 52
Width: 1024
VWidth: 0
Flags: HW
LayerCount: 2
Fore
SplineSet
128 384 m 0
 128 597 299 768 512 768 c 0
 725 768 896 597 896 384 c 0
 896 171 725 0 512 0 c 0
 299 0 128 171 128 384 c 0
205 384 m 0
 205 218 346 77 512 77 c 0
 587 77 656 106 710 152 c 1
 490 352 l 2
 480 359 474 371 474 384 c 0
 474 406 490 422 512 422 c 2
 817 422 l 1
 798 571 665 691 512 691 c 0
 346 691 205 550 205 384 c 0
817 345 m 1
 611 345 l 1
 761 207 l 1
 790 247 810 294 817 345 c 1
EndSplineSet
Validated: 1
EndChar

StartChar: zero
Encoding: 48 48 53
Width: 1024
VWidth: 0
Flags: HW
LayerCount: 2
Fore
SplineSet
532 351 m 2
 307 158 l 1
 362 108 434 77 512 77 c 0
 678 77 819 218 819 384 c 0
 819 537 699 670 550 689 c 1
 550 384 l 2
 550 370 543 358 532 351 c 2
256 216 m 1
 474 402 l 1
 474 689 l 1
 325 670 205 537 205 384 c 0
 205 323 224 265 256 216 c 1
128 384 m 0
 128 597 299 768 512 768 c 0
 725 768 896 597 896 384 c 0
 896 171 725 0 512 0 c 0
 299 0 128 171 128 384 c 0
EndSplineSet
Validated: 1
EndChar

StartChar: one
Encoding: 49 49 54
Width: 1024
VWidth: 0
Flags: HW
LayerCount: 2
Fore
SplineSet
128 384 m 0
 128 597 299 768 512 768 c 0
 725 768 896 597 896 384 c 0
 896 171 725 0 512 0 c 0
 299 0 128 171 128 384 c 0
474 79 m 1
 474 301 l 1
 307 158 l 1
 353 116 411 87 474 79 c 1
550 79 m 1
 699 98 819 231 819 384 c 0
 819 550 678 691 512 691 c 0
 346 691 205 550 205 384 c 0
 205 323 224 265 256 216 c 1
 485 412 l 1
 486 412 l 1
 493 418 502 422 512 422 c 0
 534 422 550 406 550 384 c 2
 550 79 l 1
EndSplineSet
Validated: 1
EndChar

StartChar: two
Encoding: 50 50 55
Width: 1024
VWidth: 0
Flags: HW
LayerCount: 2
Fore
SplineSet
512 345 m 1025
550 345 m 1025
128 384 m 0,2,3
 128 597 299 768 512 768 c 0,4,5
 725 768 896 597 896 384 c 0,6,7
 896 171 725 0 512 0 c 0,8,9
 299 0 128 171 128 384 c 0,2,3
474 79 m 1,10,-1
 474 345 l 1,11,-1
 207 345 l 1,12,13
 225 209 338 97 474 79 c 1,10,-1
550 79 m 1,14,15
 699 98 819 231 819 384 c 0,16,17
 819 550 678 691 512 691 c 0,18,19
 359 691 226 571 207 422 c 1,20,-1
 512 422 l 2,21,22
 534 422 550 406 550 384 c 2,23,-1
 550 79 l 1,14,15
EndSplineSet
Validated: 1
EndChar

StartChar: three
Encoding: 51 51 56
Width: 1024
VWidth: 0
Flags: HW
LayerCount: 2
Fore
SplineSet
128 384 m 0
 128 597 299 768 512 768 c 0
 725 768 896 597 896 384 c 0
 896 171 725 0 512 0 c 0
 299 0 128 171 128 384 c 0
474 79 m 1
 474 367 l 1
 262 560 l 1
 226 510 205 449 205 384 c 0
 205 231 325 98 474 79 c 1
550 79 m 1
 699 98 819 231 819 384 c 0
 819 550 678 691 512 691 c 0
 438 691 368 663 314 617 c 1
 536 414 l 1
 536 414 l 1
 545 407 550 396 550 384 c 2
 550 79 l 1
EndSplineSet
Validated: 5
EndChar

StartChar: four
Encoding: 52 52 57
Width: 1024
VWidth: 0
Flags: HW
LayerCount: 2
Fore
SplineSet
128 384 m 0
 128 597 299 768 512 768 c 0
 725 768 896 597 896 384 c 0
 896 171 725 0 512 0 c 0
 299 0 128 171 128 384 c 0
474 79 m 1
 474 384 l 1
 474 689 l 1
 325 670 205 537 205 384 c 0
 205 231 325 98 474 79 c 1
550 79 m 1
 699 98 819 231 819 384 c 0
 819 537 699 670 550 689 c 1
 550 384 l 1
 550 79 l 1
EndSplineSet
Validated: 1
EndChar

StartChar: five
Encoding: 53 53 58
Width: 1024
VWidth: 0
Flags: HW
LayerCount: 2
Fore
SplineSet
128 384 m 0
 128 597 299 768 512 768 c 0
 725 768 896 597 896 384 c 0
 896 171 725 0 512 0 c 0
 299 0 128 171 128 384 c 0
474 79 m 1
 474 384 l 2
 474 395 479 405 486 412 c 1
 485 412 l 1
 718 609 l 1
 663 660 590 691 512 691 c 0
 346 691 205 550 205 384 c 0
 205 231 325 98 474 79 c 1
550 79 m 1
 699 98 819 231 819 384 c 0
 819 445 800 503 767 552 c 1
 550 366 l 1
 550 79 l 1
EndSplineSet
Validated: 1
EndChar

StartChar: six
Encoding: 54 54 59
Width: 1024
VWidth: 0
Flags: HW
LayerCount: 2
Fore
SplineSet
128 384 m 0
 128 597 299 768 512 768 c 0
 725 768 896 597 896 384 c 0
 896 171 725 0 512 0 c 0
 299 0 128 171 128 384 c 0
474 79 m 1
 474 384 l 2
 474 406 490 422 512 422 c 2
 817 422 l 1
 798 571 665 691 512 691 c 0
 346 691 205 550 205 384 c 0
 205 231 325 98 474 79 c 1
550 79 m 1
 686 97 799 209 817 345 c 1
 550 345 l 1
 550 79 l 1
EndSplineSet
Validated: 1
EndChar

StartChar: seven
Encoding: 55 55 60
Width: 1024
VWidth: 0
Flags: HW
LayerCount: 2
Fore
SplineSet
128 384 m 0
 128 597 299 768 512 768 c 0
 725 768 896 597 896 384 c 0
 896 171 725 0 512 0 c 0
 299 0 128 171 128 384 c 0
474 79 m 1
 474 384 l 2
 474 406 490 422 512 422 c 0
 521 422 530 419 536 414 c 5
 536 414 l 1
 761 207 l 1
 798 258 819 319 819 384 c 0
 819 550 678 691 512 691 c 0
 346 691 205 550 205 384 c 0
 205 231 325 98 474 79 c 1
550 79 m 1
 610 87 665 114 710 152 c 1
 550 298 l 1
 550 79 l 1
EndSplineSet
Validated: 5
EndChar

StartChar: eight
Encoding: 56 56 61
Width: 1024
VWidth: 0
Flags: HW
LayerCount: 2
Fore
SplineSet
128 384 m 0
 128 597 299 768 512 768 c 0
 725 768 896 597 896 384 c 0
 896 171 725 0 512 0 c 0
 299 0 128 171 128 384 c 0
256 216 m 1
 407 345 l 1
 207 345 l 1
 213 298 230 254 256 216 c 1
532 351 m 2
 307 158 l 1
 362 108 434 77 512 77 c 0
 678 77 819 218 819 384 c 0
 819 550 678 691 512 691 c 0
 359 691 226 571 207 422 c 1
 512 422 l 2
 534 422 550 406 550 384 c 0
 550 370 543 358 532 351 c 2
EndSplineSet
Validated: 1
EndChar

StartChar: nine
Encoding: 57 57 62
Width: 1024
VWidth: 0
Flags: HW
LayerCount: 2
Fore
SplineSet
128 384 m 0
 128 597 299 768 512 768 c 0
 725 768 896 597 896 384 c 0
 896 171 725 0 512 0 c 0
 299 0 128 171 128 384 c 0
256 216 m 1
 454 385 l 1
 262 560 l 1
 226 510 205 449 205 384 c 0
 205 323 224 265 256 216 c 1
532 351 m 2
 307 158 l 1
 362 108 434 77 512 77 c 0
 678 77 819 218 819 384 c 0
 819 550 678 691 512 691 c 0
 438 691 368 663 314 617 c 1
 536 414 l 1
 536 414 l 1
 545 407 550 396 550 384 c 0
 550 370 543 358 532 351 c 2
EndSplineSet
Validated: 5
EndChar

StartChar: numbersign
Encoding: 35 35 63
Width: 1024
VWidth: 0
Flags: HW
LayerCount: 2
Fore
SplineSet
128 384 m 0
 128 597 299 768 512 768 c 0
 725 768 896 597 896 384 c 0
 896 171 725 0 512 0 c 0
 299 0 128 171 128 384 c 0
205 384 m 0
 205 218 346 77 512 77 c 0
 678 77 819 218 819 384 c 0
 819 445 800 503 767 552 c 1
 539 356 l 2
 532 349 523 345 512 345 c 0
 490 345 474 362 474 384 c 2
 474 689 l 1
 325 669 205 537 205 384 c 0
550 689 m 1
 550 467 l 1
 718 609 l 1
 672 651 614 680 550 689 c 1
EndSplineSet
Validated: 1
EndChar

StartChar: space
Encoding: 32 32 64
Width: 1024
VWidth: 0
Flags: HW
LayerCount: 2
Fore
SplineSet
128 384 m 0
 128 597 299 768 512 768 c 0
 725 768 896 597 896 384 c 0
 896 171 725 0 512 0 c 0
 299 0 128 171 128 384 c 0
474 79 m 1
 474 384 l 2
 474 406 490 422 512 422 c 0
 534 422 550 406 550 384 c 2
 550 79 l 1
 699 99 819 231 819 384 c 0
 819 550 678 691 512 691 c 0
 346 691 205 550 205 384 c 0
 205 231 325 99 474 79 c 1
EndSplineSet
Validated: 1
EndChar

StartChar: period
Encoding: 46 46 65
Width: 1024
VWidth: 0
Flags: HWO
LayerCount: 2
Fore
SplineSet
128 384 m 4
 128 597 299 768 512 768 c 4
 725 768 896 597 896 384 c 4
 896 171 725 0 512 0 c 4
 299 0 128 171 128 384 c 4
205 384 m 4
 205 218 346 77 512 77 c 4
 678 77 819 218 819 384 c 4
 819 550 678 691 512 691 c 4
 346 691 205 550 205 384 c 4
EndSplineSet
EndChar
